<?xml version="1.0" encoding="UTF-8"?>
<svg version="1.1" xmlns="http://www.w3.org/2000/svg" width="400" height="109">
<path d="M0 0 C12.36647547 9.54752312 21.14231904 22.52089481 24 38 C24 41.3 24 44.6 24 48 C17.07 48 10.14 48 3 48 C2.443125 45.69 1.88625 43.38 1.3125 41 C-1.43116039 30.47549022 -5.95039041 23.39128677 -15 17 C-23.12182493 12.48223488 -31.88149602 11.85068856 -41 13 C-45.20955009 14.31094825 -49.0934088 15.96304369 -53 18 C-50.02037384 21.13496212 -46.86012116 23.69363145 -43.375 26.25 C-42.32570312 27.03503906 -41.27640625 27.82007813 -40.1953125 28.62890625 C-38.14023269 30.15388601 -36.07332155 31.66311665 -33.9921875 33.15234375 C-32.63480469 34.15974609 -32.63480469 34.15974609 -31.25 35.1875 C-30.43015625 35.77917969 -29.6103125 36.37085938 -28.765625 36.98046875 C-27 39 -27 39 -26.6640625 42.12109375 C-27 45 -27 45 -28.125 46.875 C-30.88437354 48.53062412 -32.8274371 48.32157003 -36 48 C-38.30859375 46.3125 -38.30859375 46.3125 -40.4375 44 C-41.20578125 43.17757812 -41.9740625 42.35515625 -42.765625 41.5078125 C-43.50296875 40.68023437 -44.2403125 39.85265625 -45 39 C-45.63421875 38.29617187 -46.2684375 37.59234375 -46.921875 36.8671875 C-48.6382953 34.93051858 -50.32380426 32.97152547 -52 31 C-53.14578777 29.66662751 -54.29161854 28.33329198 -55.4375 27 C-56.283125 26.01 -57.12875 25.02 -58 24 C-61.9426662 25.31422207 -62.22458457 26.71797135 -64.0625 30.375 C-66.89957507 36.24626702 -68.15207721 41.55578679 -69 48 C-76.26 48 -83.52 48 -91 48 C-91 30.69349201 -84.07080272 17.09212922 -72 5 C-71.43539062 4.42378906 -70.87078125 3.84757812 -70.2890625 3.25390625 C-51.26746862 -14.60783434 -20.7763546 -14.18649764 0 0 Z " fill="#FFFFFF" transform="translate(97,20)"/>
<path d="M0 0 C9 0 9 0 11.62890625 2.40625 C12.58603516 3.93765625 12.58603516 3.93765625 13.5625 5.5 C14.22378906 6.5209375 14.88507813 7.541875 15.56640625 8.59375 C16.03949219 9.3878125 16.51257813 10.181875 17 11 C17.33 7.37 17.66 3.74 18 0 C21.3 0 24.6 0 28 0 C28 9.9 28 19.8 28 30 C20 30 20 30 17.25 27.375 C16.47286501 26.26857052 15.7230668 25.142497 15 24 C14.60683594 23.42765625 14.21367187 22.8553125 13.80859375 22.265625 C12.84811098 20.86004046 11.92059038 19.43202947 11 18 C10.67 21.96 10.34 25.92 10 30 C6.7 30 3.4 30 0 30 C0 20.1 0 10.2 0 0 Z " fill="#FFFFFF" transform="translate(145,69)"/>
<path d="M0 0 C4.5478125 -0.12375 4.5478125 -0.12375 9.1875 -0.25 C10.60712036 -0.30462402 10.60712036 -0.30462402 12.05541992 -0.36035156 C16.19518885 -0.41483955 18.42754379 -0.35381487 22.02734375 1.87109375 C24.26184546 4.28258569 25.25417171 5.79293835 26 9 C25.6816507 15.15475313 25.6816507 15.15475313 23.4375 17.9375 C22.963125 18.288125 22.48875 18.63875 22 19 C22.28875 19.70125 22.5775 20.4025 22.875 21.125 C24.02133588 24.05452503 25.02625654 27.00921653 26 30 C22.7 30 19.4 30 16 30 C14.58398438 27.31445312 14.58398438 27.31445312 13.16796875 24.62890625 C12.00980201 22.67732013 12.00980201 22.67732013 9 22 C9 24.64 9 27.28 9 30 C6.03 30 3.06 30 0 30 C0 20.1 0 10.2 0 0 Z M9 8 C9 9.98 9 11.96 9 14 C12.465 13.505 12.465 13.505 16 13 C15.67 11.35 15.34 9.7 15 8 C13.02 8 11.04 8 9 8 Z " fill="#FFFFFF" transform="translate(341,69)"/>
<path d="M0 0 C3.92176877 2.09611779 6.71259748 4.52140596 9.0625 8.28125 C9.0625 9.60125 9.0625 10.92125 9.0625 12.28125 C7.62594146 12.36256463 6.1880517 12.42058559 4.75 12.46875 C3.94949219 12.50355469 3.14898437 12.53835937 2.32421875 12.57421875 C-0.46056185 12.21349587 -1.07623161 11.28809245 -2.9375 9.28125 C-5.97961431 8.8644948 -5.97961431 8.8644948 -8.9375 9.28125 C-11.12081689 11.04261355 -11.12081689 11.04261355 -11.1328125 13.2265625 C-11.10960937 13.94585937 -11.08640625 14.66515625 -11.0625 15.40625 C-11.02125 16.685 -10.98 17.96375 -10.9375 19.28125 C-6.86417763 21.06930755 -6.86417763 21.06930755 -2.625 20.53125 C-0.79455945 19.37247685 -0.79455945 19.37247685 0.0625 17.28125 C3.3625 17.28125 6.6625 17.28125 10.0625 17.28125 C8.65404694 22.32820678 6.87056117 26.50446793 2.296875 29.3984375 C-2.24380838 31.19248373 -7.1520591 30.78801921 -11.9375 30.28125 C-16.47398124 28.25603516 -19.0180898 25.56049504 -21.24609375 21.20703125 C-22.88103163 16.65322121 -22.42096721 12.65107376 -20.8125 8.09375 C-16.04526816 0.94290224 -8.57253219 -3.18013291 0 0 Z " fill="#FFFFFF" transform="translate(243.9375,68.71875)"/>
<path d="M0 0 C2.97 0 5.94 0 9 0 C9.33 6.93 9.66 13.86 10 21 C11.98 21 13.96 21 16 21 C16.33 14.07 16.66 7.14 17 0 C19.97 0 22.94 0 26 0 C26.08741124 3.56234428 26.14052896 7.12441108 26.1875 10.6875 C26.21263672 11.69490234 26.23777344 12.70230469 26.26367188 13.74023438 C26.35708722 23.17518378 26.35708722 23.17518378 23 27 C19.84271855 30.10296263 17.42841803 30.43199443 13.0625 30.4375 C9.16497636 30.33780695 7.32017234 30.17929651 3.875 28.25 C0.70297675 24.4435721 -0.25300116 21.75809987 -0.1953125 16.796875 C-0.18886719 15.8171875 -0.18242187 14.8375 -0.17578125 13.828125 C-0.15902344 12.81234375 -0.14226562 11.7965625 -0.125 10.75 C-0.11597656 9.71875 -0.10695313 8.6875 -0.09765625 7.625 C-0.07412011 5.08309713 -0.04124023 2.5416672 0 0 Z " fill="#FFFFFF" transform="translate(310,69)"/>
<path d="M0 0 C0.721875 0.556875 1.44375 1.11375 2.1875 1.6875 C2.785625 2.14125 3.38375 2.595 4 3.0625 C5.63764212 5.30348396 5.40673623 6.98358652 5.1875 9.6875 C2.2175 9.6875 -0.7525 9.6875 -3.8125 9.6875 C-3.8125 8.6975 -3.8125 7.7075 -3.8125 6.6875 C-5.4625 7.0175 -7.1125 7.3475 -8.8125 7.6875 C-6.58172859 9.91827141 -5.42038927 10.19234061 -2.4375 11 C1.78453928 12.359755 4.02257673 13.64003475 6.1875 17.6875 C6.8477967 21.64928018 6.55300574 23.13924139 4.3125 26.5 C1.07031125 29.83754724 -1.00150855 29.91500525 -5.5625 30.0625 C-9.49006723 30.02478027 -12.32297249 29.98605155 -15.5 27.5625 C-18.00496223 24.44822264 -18.62875695 22.63797551 -18.8125 18.6875 C-17.35507537 18.60653197 -15.89637193 18.54832226 -14.4375 18.5 C-13.62539063 18.46519531 -12.81328125 18.43039063 -11.9765625 18.39453125 C-11.26242187 18.49121094 -10.54828125 18.58789062 -9.8125 18.6875 C-9.1525 19.6775 -8.4925 20.6675 -7.8125 21.6875 C-5.75324861 22.41132467 -5.75324861 22.41132467 -3.8125 22.6875 C-4.1425 21.6975 -4.4725 20.7075 -4.8125 19.6875 C-7.03800395 18.54936843 -7.03800395 18.54936843 -9.6875 17.6875 C-13.11625086 16.48793702 -15.50137156 15.54889712 -17.8125 12.6875 C-18.83535471 9.697617 -18.93443727 8.11428046 -18.0625 5.0625 C-14.37989021 -1.9344586 -6.95361285 -3.24501933 0 0 Z " fill="#FFFFFF" transform="translate(387.8125,69.3125)"/>
<path d="M0 0 C6.93 0 13.86 0 21 0 C21 2.64 21 5.28 21 8 C17.04 8 13.08 8 9 8 C9 8.99 9 9.98 9 11 C12.63 11 16.26 11 20 11 C20 13.64 20 16.28 20 19 C16.37 19 12.74 19 9 19 C9 19.99 9 20.98 9 22 C12.96 22 16.92 22 21 22 C21 24.64 21 27.28 21 30 C14.07 30 7.14 30 0 30 C0 20.1 0 10.2 0 0 Z " fill="#FFFFFF" transform="translate(285,69)"/>
<path d="M0 0 C6.93 0 13.86 0 21 0 C21 2.64 21 5.28 21 8 C17.04 8 13.08 8 9 8 C9 8.99 9 9.98 9 11 C12.63 11 16.26 11 20 11 C20.04241723 13.33294775 20.04092937 15.66702567 20 18 C19 19 19 19 16.93359375 19.09765625 C16.10988281 19.08605469 15.28617188 19.07445313 14.4375 19.0625 C13.61121094 19.05347656 12.78492188 19.04445313 11.93359375 19.03515625 C10.97646484 19.01775391 10.97646484 19.01775391 10 19 C9.67 19.99 9.34 20.98 9 22 C12.96 22 16.92 22 21 22 C21 24.64 21 27.28 21 30 C14.07 30 7.14 30 0 30 C0 20.1 0 10.2 0 0 Z " fill="#FFFFFF" transform="translate(199,69)"/>
<path d="M0 0 C8.91 0 17.82 0 27 0 C27 2.97 27 5.94 27 9 C24.03 9 21.06 9 18 9 C18 15.93 18 22.86 18 30 C15.03 30 12.06 30 9 30 C9 23.07 9 16.14 9 9 C6.03 9 3.06 9 0 9 C0 6.03 0 3.06 0 0 Z " fill="#FFFFFF" transform="translate(255,69)"/>
<path d="M0 0 C3.10336724 0.60859576 5.1457503 1.59333139 7.6953125 3.44921875 C8.40308838 3.96129883 9.11086426 4.47337891 9.84008789 5.00097656 C10.59410889 5.5575293 11.34812988 6.11408203 12.125 6.6875 C12.90673584 7.25823242 13.68847168 7.82896484 14.49389648 8.41699219 C36.80845283 24.80845283 36.80845283 24.80845283 41 29 C41.4556962 34.24050633 41.4556962 34.24050633 39.875 36.875 C37.11562646 38.53062412 35.1725629 38.32157003 32 38 C29.69140625 36.3125 29.69140625 36.3125 27.5625 34 C26.39847656 32.75283203 26.39847656 32.75283203 25.2109375 31.48046875 C24.48132813 30.66191406 23.75171875 29.84335937 23 29 C22.43539062 28.37738281 21.87078125 27.75476563 21.2890625 27.11328125 C19.49745916 25.09881994 17.74837514 23.05214689 16 21 C15.01349318 19.85375997 14.0264686 18.70796545 13.0390625 17.5625 C11.9633323 16.31268017 10.88781285 15.06267893 9.8125 13.8125 C9.30098389 13.21800049 8.78946777 12.62350098 8.26245117 12.01098633 C0 2.37303633 0 2.37303633 0 0 Z " fill="#FC2525" transform="translate(29,30)"/>
<path d="M0 0 C3.3 0 6.6 0 10 0 C10.10825949 3.54249117 10.18744405 7.08165249 10.25 10.625 C10.30027344 12.12353516 10.30027344 12.12353516 10.3515625 13.65234375 C10.43270454 19.77856807 10.14156169 23.36267125 6 28 C1.64829077 30.73536009 -3.02377174 30.14854413 -8 30 C-8 27.03 -8 24.06 -8 21 C-4.535 20.505 -4.535 20.505 -1 20 C-0.67 13.4 -0.34 6.8 0 0 Z " fill="#FFFFFF" transform="translate(184,69)"/>
<path d="M0 0 C2.97 0 5.94 0 9 0 C9 9.9 9 19.8 9 30 C6.03 30 3.06 30 0 30 C0 20.1 0 10.2 0 0 Z " fill="#FFFFFF" transform="translate(131,69)"/>
<path d="M0 0 C1.77068837 -0.03551147 3.5415813 -0.06092838 5.3125 -0.08203125 C6.29863281 -0.0972583 7.28476563 -0.11248535 8.30078125 -0.12817383 C11.64154983 0.03046433 13.4511747 0.84942865 16 3 C16.5775 3.4125 17.155 3.825 17.75 4.25 C19.78264469 7.09570256 19.883051 9.55000441 20 13 C18.47795031 17.16560966 16.86752954 19.77324057 13 22 C9.17421088 23.50298858 5.04258875 23.13254389 1 23 C0 22 0 22 -0.11352539 19.86694336 C-0.10828857 18.95050049 -0.10305176 18.03405762 -0.09765625 17.08984375 C-0.09443359 16.10048828 -0.09121094 15.11113281 -0.08789062 14.09179688 C-0.07951172 13.05087891 -0.07113281 12.00996094 -0.0625 10.9375 C-0.05798828 9.89271484 -0.05347656 8.84792969 -0.04882812 7.77148438 C-0.03699913 5.1809334 -0.02051689 2.59049441 0 0 Z M4 4 C4 8.95 4 13.9 4 19 C10.38363494 19.49943407 10.38363494 19.49943407 13.375 17.875 C15.64943318 15.25065402 15.93096951 13.45152438 16 10 C14.26655125 6.27156036 14.26655125 6.27156036 11 4 C8.69 4 6.38 4 4 4 Z " fill="#FFFFFF" transform="translate(7,76)"/>
<path d="M0 0 C2.5 1.75 2.5 1.75 4 4 C4 5.32 4 6.64 4 8 C3.01 8 2.02 8 1 8 C0.34 7.01 -0.32 6.02 -1 5 C-4.08365871 4.7497843 -4.08365871 4.7497843 -7 5 C-7.33 5.99 -7.66 6.98 -8 8 C-7.31292969 8.18175781 -6.62585938 8.36351563 -5.91796875 8.55078125 C-5.01691406 8.80214844 -4.11585937 9.05351563 -3.1875 9.3125 C-2.29417969 9.55613281 -1.40085937 9.79976562 -0.48046875 10.05078125 C2.08759319 11.03351991 3.32182572 11.84933005 5 14 C5.5 16.4375 5.5 16.4375 5 19 C2.25985609 22.07228257 0.58796759 22.91600463 -3.5 23.5 C-7.56425225 22.91939254 -9.2393501 22.01161807 -12 19 C-12 17.68 -12 16.36 -12 15 C-10.68 15 -9.36 15 -8 15 C-7.67 15.99 -7.34 16.98 -7 18 C-4.69 18 -2.38 18 0 18 C0 17.01 0 16.02 0 15 C-0.69867188 14.73445313 -1.39734375 14.46890625 -2.1171875 14.1953125 C-3.02726562 13.84210938 -3.93734375 13.48890625 -4.875 13.125 C-5.77992187 12.77695313 -6.68484375 12.42890625 -7.6171875 12.0703125 C-10 11 -10 11 -12 9 C-11.8125 5.5 -11.8125 5.5 -11 2 C-7.32316242 -0.45122505 -4.27282747 -0.70497355 0 0 Z " fill="#FFFFFF" transform="translate(75,76)"/>
<path d="M0 0 C4.62 0 9.24 0 14 0 C14 1.32 14 2.64 14 4 C10.7 4 7.4 4 4 4 C4 5.65 4 7.3 4 9 C7.3 9 10.6 9 14 9 C14 10.32 14 11.64 14 13 C10.7 13 7.4 13 4 13 C4 14.98 4 16.96 4 19 C7.63 19 11.26 19 15 19 C14.67 20.32 14.34 21.64 14 23 C11.85423363 23.02685938 9.70837355 23.04633088 7.5625 23.0625 C6.36753906 23.07410156 5.17257813 23.08570312 3.94140625 23.09765625 C1 23 1 23 0 22 C-0.08700342 20.36527118 -0.10701063 18.72685945 -0.09765625 17.08984375 C-0.09443359 16.10048828 -0.09121094 15.11113281 -0.08789062 14.09179688 C-0.07951172 13.05087891 -0.07113281 12.00996094 -0.0625 10.9375 C-0.05798828 9.89271484 -0.05347656 8.84792969 -0.04882812 7.77148438 C-0.03699927 5.18096546 -0.01906319 2.59047578 0 0 Z " fill="#FFFFFF" transform="translate(43,76)"/>
<path d="M0 0 C4.62 0 9.24 0 14 0 C14 1.32 14 2.64 14 4 C10.7 4.33 7.4 4.66 4 5 C4 5.99 4 6.98 4 8 C6.97 8.33 9.94 8.66 13 9 C13 10.32 13 11.64 13 13 C8.545 13.495 8.545 13.495 4 14 C4 15.32 4 16.64 4 18 C7.3 18.33 10.6 18.66 14 19 C13.67 20.32 13.34 21.64 13 23 C8.71 23 4.42 23 0 23 C0 15.41 0 7.82 0 0 Z " fill="#FFFFFF" transform="translate(86,76)"/>
<path d="M0 0 C1.32 0 2.64 0 4 0 C4 6.27 4 12.54 4 19 C7.3 19 10.6 19 14 19 C14 20.32 14 21.64 14 23 C9.38 23 4.76 23 0 23 C0 15.41 0 7.82 0 0 Z " fill="#FFFFFF" transform="translate(106,76)"/>
<path d="M0 0 C2.97 0 5.94 0 9 0 C9 9.9 9 19.8 9 30 C8.34 30 7.68 30 7 30 C7 20.76 7 11.52 7 2 C5.35 2 3.7 2 2 2 C2 11.24 2 20.48 2 30 C1.34 30 0.68 30 0 30 C0 20.1 0 10.2 0 0 Z " fill="#FFFFFF" transform="translate(131,69)"/>
<path d="M0 0 C3.63 0 7.26 0 11 0 C11.33 0.99 11.66 1.98 12 3 C9.03 3 6.06 3 3 3 C3 8.61 3 14.22 3 20 C5.97 20 8.94 20 12 20 C9 23 9 23 6.9921875 23.328125 C1.11111111 23.11111111 1.11111111 23.11111111 0 22 C-0.08700342 20.36527118 -0.10701063 18.72685945 -0.09765625 17.08984375 C-0.09443359 16.10048828 -0.09121094 15.11113281 -0.08789062 14.09179688 C-0.07951172 13.05087891 -0.07113281 12.00996094 -0.0625 10.9375 C-0.05798828 9.89271484 -0.05347656 8.84792969 -0.04882812 7.77148438 C-0.03699927 5.18096546 -0.01906319 2.59047578 0 0 Z " fill="#FFFFFF" transform="translate(7,76)"/>
<path d="M0 0 C1.32 0 2.64 0 4 0 C4 7.59 4 15.18 4 23 C2.68 22.67 1.36 22.34 0 22 C0 14.74 0 7.48 0 0 Z " fill="#FFFFFF" transform="translate(32,76)"/>
<path d="M0 0 C0.33 0 0.66 0 1 0 C1 1.65 1 3.3 1 5 C4.3 5 7.6 5 11 5 C11 6.32 11 7.64 11 9 C7.7 9 4.4 9 1 9 C1 10.98 1 12.96 1 15 C4.63 15 8.26 15 12 15 C11.67 16.32 11.34 17.64 11 19 C7.04 19 3.08 19 -1 19 C-0.67 15.37 -0.34 11.74 0 8 C3.3 8 6.6 8 10 8 C10 7.34 10 6.68 10 6 C6.7 6 3.4 6 0 6 C0 4.02 0 2.04 0 0 Z " fill="#FFFFFF" transform="translate(46,80)"/>
<path d="M0 0 C0.99 0.495 0.99 0.495 2 1 C2 2.32 2 3.64 2 5 C4.97 5.33 7.94 5.66 11 6 C11 7.32 11 8.64 11 10 C6.545 10.495 6.545 10.495 2 11 C2 12.32 2 13.64 2 15 C5.3 15.33 8.6 15.66 12 16 C11.67 16.99 11.34 17.98 11 19 C11 18.34 11 17.68 11 17 C7.37 17 3.74 17 0 17 C0 11.39 0 5.78 0 0 Z " fill="#FFFFFF" transform="translate(88,79)"/>
<path d="M0 0 C1.44096586 0.42594588 2.87768712 0.86626633 4.3125 1.3125 C5.51326172 1.67794922 5.51326172 1.67794922 6.73828125 2.05078125 C9.14195957 3.05957889 10.40321704 3.95284236 12 6 C12.1875 8.6875 12.1875 8.6875 12 11 C11.01 11.495 11.01 11.495 10 12 C9.01 11.34 8.02 10.68 7 10 C7 9.01 7 8.02 7 7 C2.05 5.02 2.05 5.02 -3 3 C-2.01 2.67 -1.02 2.34 0 2 C0 1.34 0 0.68 0 0 Z " fill="#FFFFFF" transform="translate(68,84)"/>
<path d="M0 0 C2.97 0 5.94 0 9 0 C9 6.93 9 13.86 9 21 C8.34 20.67 7.68 20.34 7 20 C7 14.06 7 8.12 7 2 C4.69 2 2.38 2 0 2 C0 1.34 0 0.68 0 0 Z " fill="#FFFFFF" transform="translate(310,69)"/>
<path d="M0 0 C2.97 0.99 5.94 1.98 9 3 C8.01 3.99 7.02 4.98 6 6 C3.03 5.01 0.06 4.02 -3 3 C-2.01 2.67 -1.02 2.34 0 2 C0 1.34 0 0.68 0 0 Z " fill="#FFFFFF" transform="translate(68,84)"/>
<path d="M0 0 C3.63 0 7.26 0 11 0 C11 0.99 11 1.98 11 3 C8.03 3 5.06 3 2 3 C2 2.34 2 1.68 2 1 C1.34 0.67 0.68 0.34 0 0 Z " fill="#FFFFFF" transform="translate(88,77)"/>
<path d="M0 0 C3.875 0.875 3.875 0.875 5 2 C5.07205511 3.68608966 5.08386068 5.37500659 5.0625 7.0625 C5.05347656 7.98160156 5.04445313 8.90070313 5.03515625 9.84765625 C5.02355469 10.55792969 5.01195312 11.26820312 5 12 C4.67 12 4.34 12 4 12 C3.67 9.36 3.34 6.72 3 4 C2.01 3.67 1.02 3.34 0 3 C0 2.01 0 1.02 0 0 Z " fill="#FFFFFF" transform="translate(20,79)"/>
<path d="M0 0 C0.99 0 1.98 0 3 0 C3 1.32 3 2.64 3 4 C3.66 4 4.32 4 5 4 C5 4.66 5 5.32 5 6 C5.66 6.33 6.32 6.66 7 7 C1.125 6.125 1.125 6.125 0 5 C-0.04063832 3.33382885 -0.042721 1.66611905 0 0 Z " fill="#FFFFFF" transform="translate(63,80)"/>
<path d="M0 0 C1.32 0 2.64 0 4 0 C4.33 1.32 4.66 2.64 5 4 C4.01 4.66 3.02 5.32 2 6 C1.34 5.34 0.68 4.68 0 4 C0 2.68 0 1.36 0 0 Z " fill="#FFFFFF" transform="translate(63,91)"/>
<path d="M0 0 C2.475 0.99 2.475 0.99 5 2 C5 3.32 5 4.64 5 6 C4.01 6 3.02 6 2 6 C0 3 0 3 0 0 Z " fill="#FFFFFF" transform="translate(74,78)"/>
<path d="M0 0 C2.31 1.98 4.62 3.96 7 6 C6.34 6.66 5.68 7.32 5 8 C2.5 5.6875 2.5 5.6875 0 3 C0 2.01 0 1.02 0 0 Z " fill="#FFFFFF" transform="translate(100,23)"/>
<path d="M0 0 C3.3 0 6.6 0 10 0 C9.67 1.65 9.34 3.3 9 5 C8.34 3.68 7.68 2.36 7 1 C4.69 1.33 2.38 1.66 0 2 C0 1.34 0 0.68 0 0 Z " fill="#FFFFFF" transform="translate(244,86)"/>
</svg>
